<svg xmlns="http://www.w3.org/2000/svg" xmlns:xlink="http://www.w3.org/1999/xlink" version="1.1" x="0px" y="0px" width="100px" height="100px" viewBox="0 0 100 100" enable-background="new 0 0 100 100" xml:space="preserve">
<g id="Captions">
</g>
<g id="Your_Icon">
	<path fill="#000000" d="M49.895,1.289c-26.96,0-48.816,21.856-48.816,48.816c0,26.961,21.856,48.816,48.816,48.816   c26.961,0,48.816-21.855,48.816-48.816C98.711,23.145,76.855,1.289,49.895,1.289z M88,60.27V69.9c0,1.229-0.909,2.1-2.139,2.1   H14.197C12.966,72,12,71.13,12,69.9V60.27V33.243v-3.898C12,28.729,12.468,28,13.083,28H18v-3.31c0-1.23,1.398-2.69,2.629-2.69   h11.159C33.019,22,34,23.46,34,24.69V28h52.976C87.591,28,88,28.729,88,29.345v3.898V60.27z"/>
	<path fill="#000000" d="M50.426,32.906c-9.531,0-17.255,7.726-17.255,17.256c0,9.53,7.725,17.258,17.255,17.258   c9.53,0,17.258-7.728,17.258-17.258C67.685,40.632,59.956,32.906,50.426,32.906z M50.426,59.462c-5.127,0-9.298-4.172-9.298-9.3   c0-5.128,4.171-9.299,9.298-9.299c5.127,0,9.299,4.171,9.299,9.299C59.726,55.29,55.554,59.462,50.426,59.462z"/>
</g>
</svg>